<?xml version="1.0" encoding="utf-8"?>
<!-- Generator: Adobe Illustrator 18.0.0, SVG Export Plug-In . SVG Version: 6.00 Build 0)  -->
<!DOCTYPE svg PUBLIC "-//W3C//DTD SVG 1.1//EN" "http://www.w3.org/Graphics/SVG/1.1/DTD/svg11.dtd">
<svg version="1.1"
	 id="svg2" xmlns:dc="http://purl.org/dc/elements/1.1/" xmlns:cc="http://creativecommons.org/ns#" xmlns:rdf="http://www.w3.org/1999/02/22-rdf-syntax-ns#" xmlns:svg="http://www.w3.org/2000/svg"
	 xmlns="http://www.w3.org/2000/svg" xmlns:xlink="http://www.w3.org/1999/xlink" x="0px" y="0px" viewBox="0 0 1002.8 551.1"
	 enable-background="new 0 0 1002.8 551.1" xml:space="preserve">
<g id="g10" transform="matrix(1.3333333,0,0,-1.3333333,0,551.13867)">
	<g enable-background="new    ">
		<path fill="#FFFFFF" d="M83.3,227.7v77.2h33c3.7,0,7.1-0.8,10.2-2.3c3.1-1.5,5.7-3.5,7.9-6c2.2-2.5,4-5.3,5.2-8.4
			c1.3-3.1,1.9-6.3,1.9-9.5c0-3.4-0.6-6.7-1.8-9.8c-1.2-3.1-2.9-5.9-5-8.4c-2.1-2.5-4.7-4.4-7.8-5.9c-3-1.5-6.4-2.2-10.1-2.2h-15.7
			v-24.9H83.3z M101.2,268.1h14.6c2.1,0,3.9,0.9,5.4,2.7c1.5,1.8,2.3,4.5,2.3,7.9c0,1.8-0.2,3.4-0.7,4.7c-0.5,1.3-1.1,2.4-1.9,3.3
			c-0.8,0.9-1.7,1.5-2.7,1.9c-1,0.4-2,0.6-3,0.6h-13.9V268.1z"/>
	</g>
	<g enable-background="new    ">
		<path fill="#FFFFFF" d="M184.2,242.9c3,0,5.6,0.6,7.7,1.9c2.1,1.3,3.8,3,5.1,5.1c1.3,2.1,2.2,4.5,2.8,7.2s0.8,5.5,0.8,8.3v39.5
			h17.8v-39.5c0-5.4-0.7-10.4-2-15c-1.3-4.6-3.4-8.7-6.2-12.2c-2.8-3.5-6.3-6.2-10.7-8.2c-4.3-2-9.4-3-15.4-3
			c-6.2,0-11.4,1.1-15.8,3.2c-4.4,2.1-7.9,4.9-10.6,8.4c-2.7,3.5-4.7,7.6-6,12.2c-1.3,4.6-1.9,9.5-1.9,14.6v39.5h17.8v-39.5
			c0-3,0.3-5.8,0.9-8.5c0.6-2.7,1.5-5.1,2.8-7.2c1.3-2.1,3-3.8,5.1-5C178.6,243.5,181.2,242.9,184.2,242.9z"/>
	</g>
	<g enable-background="new    ">
		<path fill="#FFFFFF" d="M104.3,201.6h16.1l28.2-77.2h-18.3l-6,17.3h-24l-5.9-17.3H76.2L104.3,201.6z M121.4,153.9l-9,27.3
			l-9.2-27.3H121.4z"/>
	</g>
	<g enable-background="new    ">
		<path fill="#FFFFFF" d="M156.2,124.4v77.2H185c6.4,0,12-1,16.7-3c4.8-2,8.8-4.8,12-8.3c3.2-3.5,5.7-7.6,7.3-12.2s2.4-9.7,2.4-15
			c0-5.9-0.9-11.2-2.7-15.9c-1.8-4.7-4.4-8.8-7.8-12.2c-3.4-3.4-7.4-6-12.2-7.8c-4.7-1.8-10-2.8-15.8-2.8H156.2z M205.3,163.1
			c0,3.4-0.5,6.5-1.4,9.3c-0.9,2.8-2.2,5.2-4,7.2c-1.7,2-3.9,3.6-6.4,4.7c-2.5,1.1-5.4,1.6-8.6,1.6h-11V140h11
			c3.3,0,6.2,0.6,8.7,1.7c2.5,1.2,4.7,2.8,6.4,4.8c1.7,2.1,3,4.5,3.9,7.3C204.9,156.7,205.3,159.7,205.3,163.1z"/>
	</g>
	<g enable-background="new    ">
		<path fill="#FFFFFF" d="M295,124.4v46.2L278.2,137h-9.6l-16.7,33.6v-46.2h-17.8v77.2h19.4l20-40.3l20.1,40.3h19.2v-77.2H295z"/>
	</g>
	<g enable-background="new    ">
		<path fill="#FFFFFF" d="M327.6,124.4v77.2h17.8v-77.2H327.6z"/>
	</g>
	<g enable-background="new    ">
		<path fill="#FFFFFF" d="M406.5,178.9c-0.2,0.3-1,0.8-2.3,1.6c-1.3,0.8-2.9,1.6-4.9,2.5c-2,0.9-4.1,1.6-6.4,2.3c-2.3,0.7-4.6,1-7,1
			c-6.4,0-9.6-2.1-9.6-6.4c0-1.3,0.3-2.4,1-3.3c0.7-0.9,1.7-1.7,3-2.3c1.3-0.7,3-1.3,5.1-1.9c2-0.6,4.4-1.2,7.1-2
			c3.7-1,7-2.1,10-3.3c3-1.2,5.5-2.7,7.6-4.5c2.1-1.8,3.7-3.9,4.8-6.5c1.1-2.5,1.7-5.6,1.7-9.1c0-4.4-0.8-8-2.4-11
			c-1.6-3-3.8-5.4-6.5-7.3c-2.7-1.8-5.8-3.2-9.2-4c-3.5-0.8-7.1-1.3-10.8-1.3c-2.8,0-5.7,0.2-8.7,0.7c-3,0.4-5.9,1.1-8.7,1.9
			c-2.8,0.8-5.6,1.8-8.2,3c-2.6,1.2-5.1,2.5-7.3,4l7.8,15.6c0.3-0.4,1.2-1.1,2.8-2.1c1.6-1,3.6-2,5.9-3c2.4-1,5-1.9,7.9-2.7
			c2.9-0.8,5.8-1.2,8.8-1.2c6.3,0,9.5,1.9,9.5,5.8c0,1.4-0.5,2.6-1.4,3.6c-0.9,0.9-2.2,1.8-3.9,2.6c-1.7,0.8-3.6,1.5-5.9,2.1
			s-4.8,1.4-7.4,2.2c-3.6,1.1-6.6,2.3-9.2,3.5c-2.6,1.3-4.8,2.7-6.5,4.4c-1.7,1.7-3,3.6-3.8,5.8c-0.8,2.2-1.3,4.7-1.3,7.6
			c0,4.1,0.8,7.6,2.3,10.8c1.5,3.1,3.6,5.7,6.2,7.9c2.6,2.1,5.6,3.8,9.1,4.8c3.4,1.1,7.1,1.6,10.9,1.6c2.7,0,5.3-0.3,7.9-0.8
			c2.6-0.5,5.1-1.2,7.5-2c2.4-0.8,4.6-1.7,6.7-2.7c2.1-1,4-2,5.7-3L406.5,178.9z"/>
	</g>
	<g enable-background="new    ">
		<path fill="#FFFFFF" d="M473.4,178.9c-0.2,0.3-1,0.8-2.3,1.6c-1.3,0.8-2.9,1.6-4.9,2.5c-2,0.9-4.1,1.6-6.4,2.3c-2.3,0.7-4.6,1-7,1
			c-6.4,0-9.6-2.1-9.6-6.4c0-1.3,0.3-2.4,1-3.3c0.7-0.9,1.7-1.7,3-2.3c1.3-0.7,3-1.3,5.1-1.9c2-0.6,4.4-1.2,7.1-2
			c3.7-1,7-2.1,10-3.3c3-1.2,5.5-2.7,7.6-4.5c2.1-1.8,3.7-3.9,4.8-6.5c1.1-2.5,1.7-5.6,1.7-9.1c0-4.4-0.8-8-2.4-11
			c-1.6-3-3.8-5.4-6.5-7.3c-2.7-1.8-5.8-3.2-9.2-4c-3.5-0.8-7.1-1.3-10.8-1.3c-2.8,0-5.7,0.2-8.7,0.7c-3,0.4-5.9,1.1-8.7,1.9
			c-2.8,0.8-5.6,1.8-8.2,3c-2.6,1.2-5.1,2.5-7.3,4l7.8,15.6c0.3-0.4,1.2-1.1,2.8-2.1c1.6-1,3.6-2,5.9-3c2.4-1,5-1.9,7.9-2.7
			c2.9-0.8,5.8-1.2,8.8-1.2c6.3,0,9.5,1.9,9.5,5.8c0,1.4-0.5,2.6-1.4,3.6c-0.9,0.9-2.2,1.8-3.9,2.6c-1.7,0.8-3.6,1.5-5.9,2.1
			s-4.8,1.4-7.4,2.2c-3.6,1.1-6.6,2.3-9.2,3.5c-2.6,1.3-4.8,2.7-6.5,4.4c-1.7,1.7-3,3.6-3.8,5.8c-0.8,2.2-1.3,4.7-1.3,7.6
			c0,4.1,0.8,7.6,2.3,10.8c1.5,3.1,3.6,5.7,6.2,7.9c2.6,2.1,5.6,3.8,9.1,4.8c3.4,1.1,7.1,1.6,10.9,1.6c2.7,0,5.3-0.3,7.9-0.8
			c2.6-0.5,5.1-1.2,7.5-2c2.4-0.8,4.6-1.7,6.7-2.7c2.1-1,4-2,5.7-3L473.4,178.9z"/>
	</g>
	<g enable-background="new    ">
		<path fill="#FFFFFF" d="M494,124.4v77.2h17.8v-77.2H494z"/>
	</g>
	<g enable-background="new    ">
		<path fill="#FFFFFF" d="M560.4,123.7c-5.7,0-10.9,1.1-15.7,3.4c-4.7,2.2-8.7,5.2-12.1,8.9c-3.3,3.7-5.9,7.8-7.8,12.6
			c-1.8,4.7-2.8,9.6-2.8,14.6c0,5.1,1,10,2.9,14.7c1.9,4.7,4.6,8.9,8,12.5c3.4,3.6,7.5,6.5,12.2,8.6c4.7,2.1,9.9,3.2,15.4,3.2
			c5.7,0,10.9-1.1,15.7-3.4c4.7-2.2,8.7-5.2,12.1-8.9c3.3-3.7,5.9-7.9,7.7-12.6c1.8-4.7,2.7-9.5,2.7-14.4c0-5.1-1-10-2.9-14.7
			c-1.9-4.7-4.6-8.9-8-12.5c-3.4-3.6-7.5-6.5-12.2-8.6C571.1,124.8,566,123.7,560.4,123.7z M540.3,162.9c0-3,0.4-5.9,1.3-8.6
			c0.9-2.8,2.2-5.3,3.9-7.4c1.7-2.2,3.8-3.9,6.4-5.2c2.5-1.3,5.4-2,8.7-2c3.4,0,6.4,0.7,8.9,2.1c2.5,1.4,4.6,3.2,6.3,5.4
			c1.7,2.2,2.9,4.7,3.8,7.5c0.8,2.8,1.3,5.6,1.3,8.5c0,3-0.4,5.9-1.3,8.6c-0.9,2.8-2.2,5.3-3.9,7.4c-1.7,2.1-3.9,3.8-6.4,5.1
			c-2.5,1.3-5.4,1.9-8.6,1.9c-3.4,0-6.4-0.7-8.9-2c-2.5-1.3-4.6-3.1-6.3-5.3c-1.7-2.2-3-4.7-3.8-7.4
			C540.7,168.6,540.3,165.8,540.3,162.9z"/>
	</g>
	<g enable-background="new    ">
		<path fill="#FFFFFF" d="M627.1,168.5v-44.2h-17.8v77.2h13.9l36-45.3v45.3H677v-77.2h-14.4L627.1,168.5z"/>
	</g>
	<g id="g20" transform="translate(340.0106,299.9588)">
		<path id="path22" fill="#EB2027" d="M0,0l-26.2,10.4l96.5,27.9L0,0z"/>
	</g>
	<g id="g24" transform="translate(340.0106,299.9588)">
		<path id="path26" fill="#CC3333" d="M0,0l-2.1-23L9.4-9l60.9,47.3L0,0z"/>
	</g>
	<g id="g28" transform="translate(337.8695,276.9841)">
		<path id="path30" fill="#993333" d="M0,0l17.6,6.1L11.5,14L0,0z"/>
	</g>
	<g id="g32" transform="translate(349.3666,290.9938)">
		<path id="path34" fill="#EB2027" d="M0,0l16-28.6l44.9,75.9L0,0z"/>
	</g>
	<g id="g36">
		<g>
			<defs>
				<rect id="SVGID_1_" x="-125.4" y="-68.9" width="1002.8" height="551.1"/>
			</defs>
			<clipPath id="SVGID_2_">
				<use xlink:href="#SVGID_1_"  overflow="visible"/>
			</clipPath>
			<g id="g38" clip-path="url(#SVGID_2_)">
				<g id="g44" transform="translate(338.1311,297.1608)">
					<path id="path46" fill="#FFFFFF" d="M0,0c0,0-0.6-0.6-1.5-1.5C-2-2-2.6-2.6-3.3-3.2C-4-3.9-4.8-4.6-5.7-5.4
						C-6.5-6.2-7.5-7.1-8.5-8c-1-0.9-2.1-1.8-3.2-2.8c-2.2-1.9-4.7-3.9-7.1-5.9c-4.8-4-9.6-8.1-13.2-11.1c-3.6-3-6-5-6-5l-0.1,0.1
						c0,0,2.3,2.1,5.8,5.2c3.5,3.1,8.2,7.3,12.9,11.5c2.3,2.1,4.7,4.2,6.9,6.1C-11.3-9-10.2-8-9.2-7.2c1,0.9,2,1.7,2.9,2.4
						c0.9,0.7,1.8,1.4,2.5,2c0.7,0.6,1.4,1.1,2,1.5C-0.7-0.4-0.1,0.1,0,0L0,0z"/>
				</g>
				<g id="g48" transform="translate(325.3763,301.4521)">
					<path id="path50" fill="#FFFFFF" d="M0,0c0,0-1-1.2-2.7-2.8c-0.8-0.8-1.8-1.7-2.9-2.7c-1.1-0.9-2.3-1.9-3.5-2.9
						c-2.4-2-4.8-3.9-6.6-5.4c-1.8-1.5-3-2.4-3-2.4l-0.1,0.1c0,0,1.1,1.1,2.8,2.6c1.7,1.6,4,3.7,6.3,5.8c1.1,1,2.3,2.1,3.4,3.1
						c1.1,0.9,2.2,1.8,3.1,2.5C-1.4-0.7-0.1,0.1,0,0L0,0z"/>
				</g>
				<g id="g52" transform="translate(313.7827,307.5723)">
					<path id="path54" fill="#FFFFFF" d="M0,0c0,0-0.6-0.8-1.6-1.9C-2.1-2.4-2.7-3-3.4-3.6c-0.7-0.6-1.5-1.2-2.3-1.8
						C-7.3-6.7-8.8-7.9-10-8.8c-1.2-0.9-2-1.5-2-1.5l-0.1,0.1c0,0,0.7,0.7,1.8,1.7c1.1,1,2.5,2.4,3.9,3.7c0.7,0.7,1.4,1.4,2.1,2
						c0.7,0.6,1.4,1.1,2,1.5C-1-0.4-0.1,0.1,0,0L0,0z"/>
				</g>
				<g id="g56" transform="translate(356.711,270.3261)">
					<path id="path58" fill="#FFFFFF" d="M0,0c0,0-1-1.2-2.7-2.8c-0.8-0.8-1.8-1.7-2.9-2.7c-1.1-0.9-2.3-1.9-3.5-2.9
						c-2.4-2-4.8-3.9-6.6-5.4c-1.8-1.5-3-2.4-3-2.4l-0.1,0.1c0,0,1.1,1.1,2.8,2.6c1.7,1.6,4,3.7,6.3,5.8c1.1,1,2.3,2.1,3.4,3.1
						c1.1,0.9,2.2,1.8,3.1,2.5C-1.4-0.7-0.1,0.1,0,0L0,0z"/>
				</g>
				<g id="g60" transform="translate(363.0959,261.0559)">
					<path id="path62" fill="#FFFFFF" d="M0,0c0,0-0.6-0.8-1.6-1.9C-2.1-2.4-2.7-3-3.4-3.6c-0.7-0.6-1.5-1.2-2.3-1.8
						C-7.3-6.7-8.8-7.9-10-8.8c-1.2-0.9-2-1.5-2-1.5l-0.1,0.1c0,0,0.7,0.7,1.8,1.7c1.1,1,2.5,2.4,3.9,3.7c0.7,0.7,1.4,1.4,2.1,2
						c0.7,0.6,1.4,1.1,2,1.5C-1-0.4-0.1,0.1,0,0L0,0z"/>
				</g>
				<g id="g64" transform="translate(345.5135,274.5073)">
					<path id="path66" fill="#FFFFFF" d="M0,0c0,0-0.6-0.6-1.5-1.5C-2-2-2.6-2.6-3.3-3.2s-1.5-1.4-2.3-2.2C-6.5-6.2-7.5-7.1-8.5-8
						c-1-0.9-2.1-1.8-3.2-2.8c-2.2-1.9-4.7-3.9-7.1-5.9c-4.8-4-9.6-8.1-13.2-11.1c-3.6-3-6-5-6-5l-0.1,0.1c0,0,2.3,2.1,5.8,5.2
						c3.5,3.1,8.2,7.3,12.9,11.5c2.3,2.1,4.7,4.2,6.9,6.1C-11.3-9-10.2-8-9.2-7.2c1,0.9,2,1.7,2.9,2.4c0.9,0.7,1.8,1.4,2.5,2
						c0.7,0.6,1.4,1.1,2,1.5C-0.7-0.4-0.1,0.1,0,0L0,0z"/>
				</g>
				<g id="g68" transform="translate(292.6642,247.8357)">
					<path id="path70" fill="#EB2027" d="M0,0l-1.8-1.6c-6.7-6.2-14.7-8.6-23.5-7.2c-7.9,1.3-14.7,5.7-19,12.4
						c-4.3,6.7-5.6,14.9-3.6,22.6c3.3,12.6,14.5,25,27.5,26.2c4.7,0.5,11.5,0.2,17.7-2.3c0.2-0.1,0.3-0.2,0.5-0.3l2.9-1.3
						c-2.5,1.9-11.5,8-22.9,8c-1.2,0-2.5-0.1-3.7-0.2l-0.4-0.1c-0.4-0.1-0.8-0.1-1.2-0.2c-11.2-2-20.8-8.8-26.5-18.6
						c-5.7-9.8-6.7-21.6-2.9-32.3c5.5-15.4,20.3-25.8,36.8-25.8c2.4,0,4.8,0.2,7.1,0.7c7.8,1.4,14.5,5,20.7,10.8l3.7,3.5L0,0z"/>
				</g>
			</g>
		</g>
	</g>
	<g enable-background="new    ">
		<path fill="#FFFFFF" d="M525.9,75.5v11.1h8.9V75.5H525.9z"/>
	</g>
	<g enable-background="new    ">
		<path fill="#FFFFFF" d="M540.1,93.3c0,2.4,0.4,4.8,1.3,7c0.9,2.2,2.1,4.2,3.7,5.9c1.6,1.7,3.6,3,6,4c2.4,1,5.1,1.5,8.1,1.5
			c4.1,0,7.6-0.9,10.4-2.6c2.8-1.7,4.9-4,6.3-6.8l-10.6-3.2c-1.4,2.3-3.5,3.4-6.2,3.4c-2.3,0-4.1-0.8-5.7-2.5
			c-1.5-1.7-2.3-3.9-2.3-6.7c0-1.4,0.2-2.7,0.6-3.8c0.4-1.2,1-2.1,1.7-2.9c0.7-0.8,1.6-1.4,2.5-1.9c1-0.5,2-0.7,3.1-0.7
			c1.4,0,2.6,0.3,3.7,1c1.1,0.7,2,1.5,2.5,2.5l10.6-3.3c-1.3-2.8-3.4-5-6.3-6.8c-2.9-1.8-6.4-2.6-10.5-2.6c-3,0-5.7,0.5-8,1.5
			c-2.4,1-4.4,2.4-6,4.1c-1.7,1.7-2.9,3.7-3.8,5.9C540.5,88.6,540.1,90.9,540.1,93.3z"/>
	</g>
	<g enable-background="new    ">
		<path fill="#FFFFFF" d="M597.5,74.8c-3,0-5.7,0.5-8.1,1.5c-2.4,1-4.4,2.3-6,4c-1.6,1.7-2.9,3.7-3.7,5.9c-0.8,2.2-1.3,4.6-1.3,7
			s0.4,4.8,1.3,7c0.8,2.2,2.1,4.2,3.7,5.9c1.6,1.7,3.6,3.1,6,4.1s5.1,1.5,8.1,1.5s5.7-0.5,8.1-1.5c2.3-1,4.3-2.4,6-4.1
			c1.6-1.7,2.9-3.7,3.7-5.9c0.9-2.2,1.3-4.6,1.3-7s-0.4-4.8-1.3-7c-0.8-2.2-2.1-4.2-3.7-5.9c-1.6-1.7-3.6-3-6-4
			C603.2,75.3,600.5,74.8,597.5,74.8z M589.5,93.3c0-2.8,0.7-5.1,2.2-6.7c1.5-1.7,3.4-2.5,5.7-2.5c1.1,0,2.2,0.2,3.1,0.7
			s1.8,1.1,2.5,1.9s1.3,1.8,1.7,2.9c0.4,1.2,0.6,2.4,0.6,3.8c0,2.8-0.7,5.1-2.2,6.7c-1.5,1.7-3.4,2.5-5.6,2.5
			c-1.1,0-2.2-0.2-3.2-0.7c-1-0.5-1.8-1.1-2.5-1.9c-0.7-0.8-1.3-1.8-1.7-3C589.7,95.9,589.5,94.6,589.5,93.3z"/>
	</g>
	<g enable-background="new    ">
		<path fill="#FFFFFF" d="M678.2,75.5h-10.8v20c0,2.4-0.4,4.1-1.3,5.1c-0.9,1.1-2,1.6-3.3,1.6c-0.7,0-1.5-0.2-2.2-0.5
			c-0.7-0.3-1.4-0.8-2.1-1.3c-0.6-0.6-1.2-1.2-1.7-2c-0.5-0.8-0.9-1.6-1.3-2.5V75.5h-10.8v20c0,2.4-0.4,4.1-1.3,5.1
			c-0.9,1.1-2,1.6-3.3,1.6c-1.4,0-2.9-0.6-4.2-1.7c-1.4-1.2-2.4-2.7-3-4.6V75.5h-10.8v35.6h9.8v-6c1.3,2.2,3.1,3.8,5.3,4.9
			c2.2,1.1,4.8,1.7,7.8,1.7c1.5,0,2.8-0.2,3.9-0.5c1.1-0.4,2.1-0.9,2.9-1.5c0.8-0.6,1.5-1.4,2-2.2c0.5-0.8,0.9-1.7,1.1-2.7
			c1.4,2.2,3.1,3.9,5.4,5.1c2.2,1.2,4.7,1.8,7.6,1.8c2.3,0,4.1-0.4,5.5-1.3c1.4-0.8,2.5-1.9,3.2-3.3c0.8-1.3,1.3-2.8,1.5-4.4
			c0.2-1.6,0.4-3.1,0.4-4.6V75.5z"/>
	</g>
</g>
</svg>
